<?xml version="1.0" encoding="UTF-8"?>
<svg width="192px" height="192px" viewBox="0 0 192 192" version="1.1" xmlns="http://www.w3.org/2000/svg" xmlns:xlink="http://www.w3.org/1999/xlink">
    <!-- Generator: Sketch 50.2 (55047) - http://www.bohemiancoding.com/sketch -->
    <title>Prevent spam and fraud Copy</title>
    <desc>Created with Sketch.</desc>
    <defs></defs>
    <g id="Prevent-spam-and-fraud-Copy" stroke="none" stroke-width="1" fill="none" fill-rule="evenodd">
        <rect id="Rectangle-6" x="0" y="-1" width="192" height="274"></rect>
        <path d="M70,122 L71.44,122 L71.44,127.68 L71.472,127.68 C71.6533342,127.274665 71.9679978,126.946668 72.416,126.696 C72.8640022,126.445332 73.3813304,126.32 73.968,126.32 C74.3306685,126.32 74.6799983,126.375999 75.016,126.488 C75.3520017,126.600001 75.6453321,126.773332 75.896,127.008 C76.1466679,127.242668 76.3466659,127.543998 76.496,127.912 C76.6453341,128.280002 76.72,128.714664 76.72,129.216 L76.72,134.096 L75.28,134.096 L75.28,129.616 C75.28,129.263998 75.2320005,128.962668 75.136,128.712 C75.0399995,128.461332 74.9120008,128.258667 74.752,128.104 C74.5919992,127.949333 74.408001,127.837334 74.2,127.768 C73.991999,127.698666 73.7760011,127.664 73.552,127.664 C73.2533318,127.664 72.9760013,127.712 72.72,127.808 C72.4639987,127.904 72.240001,128.055999 72.048,128.264 C71.855999,128.472001 71.7066672,128.735998 71.6,129.056 C71.4933328,129.376002 71.44,129.754664 71.44,130.192 L71.44,134.096 L70,134.096 L70,122 Z M82.96,127.76 L80.896,127.76 L80.896,131.2 C80.896,131.413334 80.9013333,131.623999 80.912,131.832 C80.9226667,132.040001 80.9626663,132.226666 81.032,132.392 C81.1013337,132.557334 81.2079993,132.690666 81.352,132.792 C81.4960007,132.893334 81.7066653,132.944 81.984,132.944 C82.1546675,132.944 82.3306658,132.928 82.512,132.896 C82.6933342,132.864 82.8586659,132.805334 83.008,132.72 L83.008,134.032 C82.8373325,134.128 82.6160014,134.194666 82.344,134.232 C82.0719986,134.269334 81.8613341,134.288 81.712,134.288 C81.1573306,134.288 80.7280015,134.210667 80.424,134.056 C80.1199985,133.901333 79.8960007,133.701335 79.752,133.456 C79.6079993,133.210665 79.5226668,132.936002 79.496,132.632 C79.4693332,132.327998 79.456,132.021335 79.456,131.712 L79.456,127.76 L77.792,127.76 L77.792,126.512 L79.456,126.512 L79.456,124.384 L80.896,124.384 L80.896,126.512 L82.96,126.512 L82.96,127.76 Z M88.88,127.76 L86.816,127.76 L86.816,131.2 C86.816,131.413334 86.8213333,131.623999 86.832,131.832 C86.8426667,132.040001 86.8826663,132.226666 86.952,132.392 C87.0213337,132.557334 87.1279993,132.690666 87.272,132.792 C87.4160007,132.893334 87.6266653,132.944 87.904,132.944 C88.0746675,132.944 88.2506658,132.928 88.432,132.896 C88.6133342,132.864 88.7786659,132.805334 88.928,132.72 L88.928,134.032 C88.7573325,134.128 88.5360014,134.194666 88.264,134.232 C87.9919986,134.269334 87.7813341,134.288 87.632,134.288 C87.0773306,134.288 86.6480015,134.210667 86.344,134.056 C86.0399985,133.901333 85.8160007,133.701335 85.672,133.456 C85.5279993,133.210665 85.4426668,132.936002 85.416,132.632 C85.3893332,132.327998 85.376,132.021335 85.376,131.712 L85.376,127.76 L83.712,127.76 L83.712,126.512 L85.376,126.512 L85.376,124.384 L86.816,124.384 L86.816,126.512 L88.88,126.512 L88.88,127.76 Z M90.736,126.512 L92.176,126.512 L92.176,127.6 L92.208,127.6 C92.4853347,127.194665 92.8666642,126.880001 93.352,126.656 C93.8373358,126.431999 94.3359974,126.32 94.848,126.32 C95.4346696,126.32 95.965331,126.421332 96.44,126.624 C96.914669,126.826668 97.3199983,127.109332 97.656,127.472 C97.9920017,127.834668 98.2506658,128.258664 98.432,128.744 C98.6133342,129.229336 98.704,129.749331 98.704,130.304 C98.704,130.869336 98.6133342,131.394664 98.432,131.88 C98.2506658,132.365336 97.9920017,132.786665 97.656,133.144 C97.3199983,133.501335 96.914669,133.781332 96.44,133.984 C95.965331,134.186668 95.4346696,134.288 94.848,134.288 C94.3039973,134.288 93.7920024,134.173334 93.312,133.944 C92.8319976,133.714666 92.4640013,133.402669 92.208,133.008 L92.176,133.008 L92.176,138.608 L90.736,138.608 L90.736,126.512 Z M94.672,127.664 C94.2879981,127.664 93.9413349,127.730666 93.632,127.864 C93.3226651,127.997334 93.0613344,128.178666 92.848,128.408 C92.6346656,128.637334 92.4693339,128.914665 92.352,129.24 C92.2346661,129.565335 92.176,129.919998 92.176,130.304 C92.176,130.688002 92.2346661,131.042665 92.352,131.368 C92.4693339,131.693335 92.6346656,131.970666 92.848,132.2 C93.0613344,132.429334 93.3226651,132.610666 93.632,132.744 C93.9413349,132.877334 94.2879981,132.944 94.672,132.944 C95.0560019,132.944 95.4026651,132.877334 95.712,132.744 C96.0213349,132.610666 96.2826656,132.429334 96.496,132.2 C96.7093344,131.970666 96.8746661,131.693335 96.992,131.368 C97.1093339,131.042665 97.168,130.688002 97.168,130.304 C97.168,129.919998 97.1093339,129.565335 96.992,129.24 C96.8746661,128.914665 96.7093344,128.637334 96.496,128.408 C96.2826656,128.178666 96.0213349,127.997334 95.712,127.864 C95.4026651,127.730666 95.0560019,127.664 94.672,127.664 Z M104.544,128.416 C104.373332,128.202666 104.162668,128.024001 103.912,127.88 C103.661332,127.735999 103.354668,127.664 102.992,127.664 C102.650665,127.664 102.354668,127.735999 102.104,127.88 C101.853332,128.024001 101.728,128.234665 101.728,128.512 C101.728,128.736001 101.799999,128.917333 101.944,129.056 C102.088001,129.194667 102.258666,129.306666 102.456,129.392 C102.653334,129.477334 102.863999,129.541333 103.088,129.584 C103.312001,129.626667 103.503999,129.664 103.664,129.696 C103.973335,129.770667 104.263999,129.861333 104.536,129.968 C104.808001,130.074667 105.042666,130.213332 105.24,130.384 C105.437334,130.554668 105.591999,130.762665 105.704,131.008 C105.816001,131.253335 105.872,131.551998 105.872,131.904 C105.872,132.330669 105.781334,132.695998 105.6,133 C105.418666,133.304002 105.184001,133.551999 104.896,133.744 C104.607999,133.936001 104.280002,134.074666 103.912,134.16 C103.543998,134.245334 103.173335,134.288 102.8,134.288 C102.170664,134.288 101.618669,134.192001 101.144,134 C100.669331,133.807999 100.245335,133.456003 99.872,132.944 L100.96,132.048 C101.194668,132.282668 101.455999,132.490666 101.744,132.672 C102.032001,132.853334 102.383998,132.944 102.8,132.944 C102.981334,132.944 103.165332,132.925334 103.352,132.888 C103.538668,132.850666 103.703999,132.792 103.848,132.712 C103.992001,132.632 104.109333,132.530667 104.2,132.408 C104.290667,132.285333 104.336,132.144001 104.336,131.984 C104.336,131.770666 104.269334,131.594667 104.136,131.456 C104.002666,131.317333 103.842668,131.208 103.656,131.128 C103.469332,131.048 103.272001,130.984 103.064,130.936 C102.855999,130.888 102.672001,130.848 102.512,130.816 C102.202665,130.741333 101.909335,130.656 101.632,130.56 C101.354665,130.464 101.109334,130.336001 100.896,130.176 C100.682666,130.015999 100.512001,129.813335 100.384,129.568 C100.255999,129.322665 100.192,129.018668 100.192,128.656 C100.192,128.261331 100.274666,127.917335 100.44,127.624 C100.605334,127.330665 100.823999,127.088001 101.096,126.896 C101.368001,126.703999 101.677332,126.56 102.024,126.464 C102.370668,126.368 102.719998,126.32 103.072,126.32 C103.584003,126.32 104.074664,126.415999 104.544,126.608 C105.013336,126.800001 105.386665,127.119998 105.664,127.568 L104.544,128.416 Z M108.752,128.528 C108.463999,128.528 108.216001,128.424001 108.008,128.216 C107.799999,128.007999 107.696,127.760001 107.696,127.472 C107.696,127.183999 107.799999,126.936001 108.008,126.728 C108.216001,126.519999 108.463999,126.416 108.752,126.416 C109.040001,126.416 109.287999,126.519999 109.496,126.728 C109.704001,126.936001 109.808,127.183999 109.808,127.472 C109.808,127.760001 109.704001,128.007999 109.496,128.216 C109.287999,128.424001 109.040001,128.528 108.752,128.528 Z M107.696,133.136 C107.696,132.847999 107.799999,132.600001 108.008,132.392 C108.216001,132.183999 108.463999,132.08 108.752,132.08 C109.040001,132.08 109.287999,132.183999 109.496,132.392 C109.704001,132.600001 109.808,132.847999 109.808,133.136 C109.808,133.424001 109.704001,133.671999 109.496,133.88 C109.287999,134.088001 109.040001,134.192 108.752,134.192 C108.463999,134.192 108.216001,134.088001 108.008,133.88 C107.799999,133.671999 107.696,133.424001 107.696,133.136 Z M112.096,134.8 L110.976,134.384 L116.096,122.064 L117.2,122.48 L112.096,134.8 Z M118.32,134.8 L117.2,134.384 L122.32,122.064 L123.424,122.48 L118.32,134.8 Z M126.096,134.192 C125.807999,134.192 125.560001,134.088001 125.352,133.88 C125.143999,133.671999 125.04,133.424001 125.04,133.136 C125.04,132.847999 125.143999,132.600001 125.352,132.392 C125.560001,132.183999 125.807999,132.08 126.096,132.08 C126.384001,132.08 126.631999,132.183999 126.84,132.392 C127.048001,132.600001 127.152,132.847999 127.152,133.136 C127.152,133.424001 127.048001,133.671999 126.84,133.88 C126.631999,134.088001 126.384001,134.192 126.096,134.192 Z M131.424,134.192 C131.135999,134.192 130.888001,134.088001 130.68,133.88 C130.471999,133.671999 130.368,133.424001 130.368,133.136 C130.368,132.847999 130.471999,132.600001 130.68,132.392 C130.888001,132.183999 131.135999,132.08 131.424,132.08 C131.712001,132.08 131.959999,132.183999 132.168,132.392 C132.376001,132.600001 132.48,132.847999 132.48,133.136 C132.48,133.424001 132.376001,133.671999 132.168,133.88 C131.959999,134.088001 131.712001,134.192 131.424,134.192 Z M136.752,134.192 C136.463999,134.192 136.216001,134.088001 136.008,133.88 C135.799999,133.671999 135.696,133.424001 135.696,133.136 C135.696,132.847999 135.799999,132.600001 136.008,132.392 C136.216001,132.183999 136.463999,132.08 136.752,132.08 C137.040001,132.08 137.287999,132.183999 137.496,132.392 C137.704001,132.600001 137.808,132.847999 137.808,133.136 C137.808,133.424001 137.704001,133.671999 137.496,133.88 C137.287999,134.088001 137.040001,134.192 136.752,134.192 Z" id="https://…" fill="#FFFFFF"></path>
        <rect id="Rectangle-3" x="0" y="0" width="193" height="192"></rect>
        <g id="Group" transform="translate(24.000000, 21.000000)">
            <path d="" id="Path-13" stroke="#979797"></path>
            <path d="M6,95.7320508 L6,98.5773503 L8.46410162,100 L10.9282032,98.5773503 L10.9282032,95.7320508 L8.46410162,94.3094011 L6,95.7320508 Z M12.9282032,94.5773503 L12.9282032,99.7320508 L8.46410162,102.309401 L4,99.7320508 L4,94.5773503 L8.46410162,92 L12.9282032,94.5773503 Z" id="Polygon" fill="#F38260" fill-rule="nonzero"></path>
            <path d="M53,3.73205081 L53,6.57735027 L55.4641016,8 L57.9282032,6.57735027 L57.9282032,3.73205081 L55.4641016,2.30940108 L53,3.73205081 Z M59.9282032,2.57735027 L59.9282032,7.73205081 L55.4641016,10.3094011 L51,7.73205081 L51,2.57735027 L55.4641016,0 L59.9282032,2.57735027 Z" id="Polygon" fill="#584C4E" fill-rule="nonzero"></path>
            <circle id="Oval-2-Copy" fill="#584C4E" cx="29" cy="148" r="2"></circle>
            <circle id="Oval-2" fill="#F3972B" cx="13" cy="123" r="2"></circle>
            <circle id="Oval-2-Copy-2" fill="#584C4E" cx="125" cy="13" r="2"></circle>
            <circle id="Oval-2-Copy-3" fill="#F38260" cx="8" cy="32" r="2"></circle>
            <circle id="Oval-2-Copy-4" fill="#584C4E" cx="27" cy="2" r="2"></circle>
        </g>
        <g id="Group-2" transform="translate(18.000000, 35.000000)">
            <path d="M47,2 C42.581722,2 39,5.581722 39,10 L39,120 C39,124.418278 42.581722,128 47,128 L109,128 C113.418278,128 117,124.418278 117,120 L117,10 C117,5.581722 113.418278,2 109,2 L47,2 Z M47,0 L109,0 C114.522847,0 119,4.4771525 119,10 L119,120 C119,125.522847 114.522847,130 109,130 L47,130 C41.4771525,130 37,125.522847 37,120 L37,10 C37,4.4771525 41.4771525,0 47,0 Z" id="Rectangle" fill="#584C4E" fill-rule="nonzero"></path>
            <g id="Group-7" transform="translate(47.000000, 10.000000)">
                <rect id="Rectangle" fill="#FFE0BC" x="0" y="0" width="62" height="100" rx="5"></rect>
                <path d="M5,2 C3.34314575,2 2,3.34314575 2,5 L2,95 C2,96.6568542 3.34314575,98 5,98 L57,98 C58.6568542,98 60,96.6568542 60,95 L60,5 C60,3.34314575 58.6568542,2 57,2 L5,2 Z M5,0 L57,0 C59.7614237,0 62,2.23857625 62,5 L62,95 C62,97.7614237 59.7614237,100 57,100 L5,100 C2.23857625,100 0,97.7614237 0,95 L0,5 C0,2.23857625 2.23857625,0 5,0 Z" id="Rectangle" fill="#584C4E" fill-rule="nonzero"></path>
            </g>
            <g id="Group-3" stroke="#979797">
                <path d="" id="Path-13"></path>
            </g>
            <circle id="Oval" fill="#FFE0BC" cx="78" cy="119" r="5"></circle>
            <path d="M78,125 C74.6862915,125 72,122.313708 72,119 C72,115.686292 74.6862915,113 78,113 C81.3137085,113 84,115.686292 84,119 C84,122.313708 81.3137085,125 78,125 Z M78,123 C80.209139,123 82,121.209139 82,119 C82,116.790861 80.209139,115 78,115 C75.790861,115 74,116.790861 74,119 C74,121.209139 75.790861,123 78,123 Z" id="Oval" fill="#584C4E" fill-rule="nonzero"></path>
        </g>
        <g id="Group-3" transform="translate(60.500000, 80.500000) scale(-1, 1) translate(-60.500000, -80.500000) translate(28.000000, 50.000000)">
            <path d="M9.73228033,1.07017544 L55.2677197,1.07017544 C60.0444012,1.07017544 63.9166667,4.81041641 63.9166667,9.42423746 L63.9166667,36.2395664 C63.9166667,40.8533875 60.0444012,44.5936284 55.2677197,44.5936284 L19.6432644,44.5936284 C17.3745953,44.5936284 15.196757,45.454625 13.5791421,46.9910464 L1.08333333,58.8596491 L1.08333333,9.42423746 C1.08333333,4.81041641 4.9555988,1.07017544 9.73228033,1.07017544 Z" id="Rectangle" fill="#F38260" transform="translate(32.500000, 29.964912) scale(-1, 1) translate(-32.500000, -29.964912) "></path>
            <path d="M12.8408746,46.4484486 C14.6323893,44.7477183 17.0442206,43.794697 19.5565805,43.794697 L55.4212264,43.794697 C59.7490132,43.794697 63.2569743,40.4080564 63.2569743,36.230905 L63.2569743,9.24845934 C63.2569743,5.0713079 59.7490132,1.68466737 55.4212264,1.68466737 L9.5787736,1.68466737 C5.25098682,1.68466737 1.74302567,5.0713079 1.74302567,9.24845934 L1.74302567,56.9839182 L12.8408746,46.4484486 Z M9.5787736,0 L55.4212264,0 C60.7112143,3.64719517e-15 65,4.14046077 65,9.24845934 L65,36.230905 C65,41.3389036 60.7112143,45.4793643 55.4212264,45.4793643 L19.5565805,45.4793643 C17.50101,45.4793643 15.5277974,46.2590679 14.0622696,47.6503307 L0,61 L0,9.24845934 C-6.77301531e-16,4.14046077 4.28878572,-7.481426e-16 9.5787736,0 Z" id="Rectangle" fill="#584C4E" fill-rule="nonzero" transform="translate(32.500000, 30.500000) scale(-1, 1) translate(-32.500000, -30.500000) "></path>
        </g>
        <g id="Group-3" transform="translate(93.000000, 91.000000)">
            <path d="M9.73228033,1.07017544 L55.2677197,1.07017544 C60.0444012,1.07017544 63.9166667,4.81041641 63.9166667,9.42423746 L63.9166667,36.2395664 C63.9166667,40.8533875 60.0444012,44.5936284 55.2677197,44.5936284 L19.6432644,44.5936284 C17.3745953,44.5936284 15.196757,45.454625 13.5791421,46.9910464 L1.08333333,58.8596491 L1.08333333,9.42423746 C1.08333333,4.81041641 4.9555988,1.07017544 9.73228033,1.07017544 Z" id="Rectangle" fill="#F38260" transform="translate(32.500000, 29.964912) scale(-1, 1) translate(-32.500000, -29.964912) "></path>
            <path d="M12.8408746,46.4484486 C14.6323893,44.7477183 17.0442206,43.794697 19.5565805,43.794697 L55.4212264,43.794697 C59.7490132,43.794697 63.2569743,40.4080564 63.2569743,36.230905 L63.2569743,9.24845934 C63.2569743,5.0713079 59.7490132,1.68466737 55.4212264,1.68466737 L9.5787736,1.68466737 C5.25098682,1.68466737 1.74302567,5.0713079 1.74302567,9.24845934 L1.74302567,56.9839182 L12.8408746,46.4484486 Z M9.5787736,0 L55.4212264,0 C60.7112143,3.64719517e-15 65,4.14046077 65,9.24845934 L65,36.230905 C65,41.3389036 60.7112143,45.4793643 55.4212264,45.4793643 L19.5565805,45.4793643 C17.50101,45.4793643 15.5277974,46.2590679 14.0622696,47.6503307 L0,61 L0,9.24845934 C-6.77301531e-16,4.14046077 4.28878572,-7.481426e-16 9.5787736,0 Z" id="Rectangle" fill="#584C4E" fill-rule="nonzero" transform="translate(32.500000, 30.500000) scale(-1, 1) translate(-32.500000, -30.500000) "></path>
        </g>
        <path d="M45.9765625,68 L45.9765625,71.3632812 L49.2109375,70.2851562 L49.8203125,72.21875 L46.5742188,73.2617188 L48.625,76.0742188 L46.9726562,77.28125 L44.875,74.4453125 L42.8359375,77.1992188 L41.2070312,75.9804688 L43.2929688,73.2617188 L40,72.1367188 L40.6210938,70.2265625 L43.890625,71.3632812 L43.890625,68 L45.9765625,68 Z M57.0859375,68 L57.0859375,71.3632812 L60.3203125,70.2851562 L60.9296875,72.21875 L57.6835938,73.2617188 L59.734375,76.0742188 L58.0820312,77.28125 L55.984375,74.4453125 L53.9453125,77.1992188 L52.3164062,75.9804688 L54.4023438,73.2617188 L51.109375,72.1367188 L51.7304688,70.2265625 L55,71.3632812 L55,68 L57.0859375,68 Z M68.1953125,68 L68.1953125,71.3632812 L71.4296875,70.2851562 L72.0390625,72.21875 L68.7929688,73.2617188 L70.84375,76.0742188 L69.1914062,77.28125 L67.09375,74.4453125 L65.0546875,77.1992188 L63.4257812,75.9804688 L65.5117188,73.2617188 L62.21875,72.1367188 L62.8398438,70.2265625 L66.109375,71.3632812 L66.109375,68 L68.1953125,68 Z M79.3046875,68 L79.3046875,71.3632812 L82.5390625,70.2851562 L83.1484375,72.21875 L79.9023438,73.2617188 L81.953125,76.0742188 L80.3007812,77.28125 L78.203125,74.4453125 L76.1640625,77.1992188 L74.5351562,75.9804688 L76.6210938,73.2617188 L73.328125,72.1367188 L73.9492188,70.2265625 L77.21875,71.3632812 L77.21875,68 L79.3046875,68 Z" id="****" fill="#FFFFFF"></path>
        <g id="Group-3" transform="translate(111.000000, 100.000000)" fill="#FFFFFF">
            <g id="Group-2">
                <rect id="Rectangle-6" x="0" y="10.5" width="3.40909091" height="9.33333333" rx="1.70454545"></rect>
                <rect id="Rectangle-6-Copy-5" x="21.5909091" y="9.33333333" width="3.40909091" height="11.6666667" rx="1.70454545"></rect>
                <g id="Group" transform="translate(7.386364, 0.000000)">
                    <rect id="Rectangle-6-Copy" x="0" y="5.15789474" width="3.59848485" height="19.5263158" rx="1.79924242"></rect>
                    <rect id="Rectangle-6-Copy-2" x="7.1969697" y="8.47368421" width="3.59848485" height="19.5263158" rx="1.79924242"></rect>
                    <rect id="Rectangle-6-Copy-3" x="7.1969697" y="0" width="3.59848485" height="6.26315789" rx="1.79924242"></rect>
                </g>
            </g>
        </g>
        <g id="Group-5" transform="translate(155.500000, 58.000000) scale(-1, 1) translate(-155.500000, -58.000000) translate(141.000000, 54.000000)" stroke="#584C4E" stroke-linecap="round" stroke-width="2">
            <path d="M0,2 L14,2" id="Path-7"></path>
            <path d="M19,2 L22,2" id="Path-7-Copy"></path>
            <path d="M7,7 L21,7" id="Path-7"></path>
            <path d="M24,7 L29,7" id="Path-7-Copy"></path>
        </g>
    </g>
</svg>